PathFileType	4	(X/Y/Z)	s10c0202.trc
DataRate	CameraRate	NumFrames	NumMarkers	Units	OrigDataRate	OrigDataStartFrame	OrigNumFrames
200	200	7	50	mm	200	1500	2000
Frame#	Time	racr			lacr			c7			jug			rlel			rdr			llel			ldr			s2			lic			ric			lasi			rasi			rpsi			lpsi			rgt			lgt			rth1			rth2			rth3			rth4			rlfc			rmfc			rsh1			rsh2			rsh3			rsh4			rlmal			rmmal			rcal			rtoe			rmt5			lth1			lth2			lth4			lth3			llfc			lmfc			llmal			lmmal			lcal			lmt5			lsh1			lsh2			lsh3			lsh4			ltoe			SBIKE			LBIKE			RBIKE			
		X1	Y1	Z1	X2	Y2	Z2	X3	Y3	Z3	X4	Y4	Z4	X5	Y5	Z5	X6	Y6	Z6	X7	Y7	Z7	X8	Y8	Z8	X9	Y9	Z9	X10	Y10	Z10	X11	Y11	Z11	X12	Y12	Z12	X13	Y13	Z13	X14	Y14	Z14	X15	Y15	Z15	X16	Y16	Z16	X17	Y17	Z17	X18	Y18	Z18	X19	Y19	Z19	X20	Y20	Z20	X21	Y21	Z21	X22	Y22	Z22	X23	Y23	Z23	X24	Y24	Z24	X25	Y25	Z25	X26	Y26	Z26	X27	Y27	Z27	X28	Y28	Z28	X29	Y29	Z29	X30	Y30	Z30	X31	Y31	Z31	X32	Y32	Z32	X33	Y33	Z33	X34	Y34	Z34	X35	Y35	Z35	X36	Y36	Z36	X37	Y37	Z37	X38	Y38	Z38	X39	Y39	Z39	X40	Y40	Z40	X41	Y41	Z41	X42	Y42	Z42	X43	Y43	Z43	X44	Y44	Z44	X45	Y45	Z45	X46	Y46	Z46	X47	Y47	Z47	X48	Y48	Z48	X49	Y49	Z49	X50	Y50	Z50	
1500	7.5000	411.695300	1289.745918	-29.616898	462.611481	1301.317028	-317.056566	396.398807	1322.625907	-187.183917	415.655518	1180.380911	-179.636076	417.285874	1025.968380	45.050411	599.219510	916.417792	-38.844955	454.812227	1063.085277	-477.720854	607.561495	909.901293	-431.748317	-110.134836	1103.752953	-220.666049	52.246188	1117.250480	-386.695238	55.366138	1130.798795	-95.567376	80.523069	1034.178213	-358.479184	84.350191	1052.894948	-99.926923	-67.634447	1164.887534	-176.780666	-65.279522	1173.201714	-286.652854	-11.919269	1032.187231	-39.171444	-59.250994	983.791023	-411.290543	100.972043	941.593618	-19.762753	186.359203	923.152732	-35.460965	250.009013	865.993800	-36.191130	200.027010	955.450660	-49.248260	350.400381	806.936476	-59.768022	338.003506	789.371664	-177.413395	295.865982	703.042112	-33.196747	293.153576	614.918782	-46.131774	248.646400	541.083849	-49.224999	322.227368	609.960021	-71.865385	215.053169	443.008338	-61.923982	239.360057	459.529276	-140.081481	162.142786	420.591192	-106.096525	402.892744	394.782825	-103.326128	320.654280	367.944428	-40.684416	19.835942	873.860815	-432.226192	96.095656	832.001973	-430.729763	121.288361	858.519922	-429.088223	142.048903	755.866107	-422.846391	220.353855	669.117580	-410.335944	238.048442	668.480904	-290.915668	-49.348573	407.600482	-378.229456	-27.747614	396.593123	-300.368910	-107.788842	407.226635	-330.018531	2.347555	270.627246	-399.352476	124.098300	591.470630	-431.846833	88.865980	513.718921	-408.925798	16.017194	463.607497	-398.800312	113.688233	500.055444	-384.293838	88.746683	247.243516	-345.444460	-217.809539	832.283555	-214.335305	-103.958912	80.442008	-418.305594	-103.985812	80.480593	-18.331064	
1501	7.5050	412.075205	1289.671127	-30.276506	462.051548	1302.019230	-317.552971	396.094297	1322.892448	-187.480390	415.731748	1180.664695	-180.396704	417.028035	1026.030335	43.648680	599.239539	916.161950	-39.017251	455.118222	1063.474115	-477.904108	607.777477	909.996682	-432.719486	-111.001396	1104.501538	-221.519237	52.294802	1117.174740	-386.673921	56.360924	1129.594368	-94.803397	80.702057	1033.927869	-358.313695	84.511188	1051.329768	-100.043599	-68.081879	1163.834844	-177.240708	-65.441359	1172.331149	-286.718611	-12.942108	1028.881422	-40.403736	-57.380386	983.584335	-412.661537	99.037485	935.698015	-19.951451	184.291445	915.381184	-35.185379	246.515103	856.665049	-36.591197	198.932991	947.837098	-47.936183	345.774952	793.881361	-59.768088	334.511576	777.754885	-176.668465	292.002798	689.633422	-32.958948	290.835693	601.432481	-46.162737	247.697648	526.921687	-49.261900	320.186024	596.974933	-71.661531	216.100128	430.560871	-61.900161	241.754615	447.509301	-140.709248	163.249996	407.784582	-106.096482	404.460910	384.997460	-103.166320	322.510293	356.974536	-40.639423	23.100960	874.767327	-432.813344	99.986299	834.096416	-430.999423	124.758925	861.002252	-429.177192	147.063744	758.737784	-422.855056	226.798581	672.847811	-409.859589	242.559111	673.021167	-289.479790	-48.555002	418.538622	-378.378131	-27.703213	407.354894	-300.391543	-107.188888	419.416746	-330.368982	0.427551	280.711473	-399.362826	130.302454	598.090760	-431.941367	92.767718	520.773205	-408.661263	18.561541	472.537066	-398.799174	116.680623	506.703807	-383.063053	86.449424	255.923060	-345.367242	-217.819268	832.271429	-214.368304	-103.956758	80.435626	-418.296871	-103.997415	80.445439	-18.347796	
1502	7.5100	412.518205	1289.581310	-31.018585	461.474345	1302.738872	-318.251940	395.728867	1323.142604	-187.864361	415.897199	1180.954597	-181.271038	416.906499	1025.864772	42.135412	599.330138	915.994055	-39.210716	455.315541	1063.783425	-478.264946	607.903694	910.124923	-433.566992	-111.689863	1103.032583	-222.178302	52.320821	1116.994423	-386.640684	56.733196	1127.716350	-94.713435	80.876207	1033.580458	-358.036899	84.621570	1049.300836	-100.162689	-68.691474	1162.090020	-177.264202	-65.585037	1171.062128	-286.948560	-14.148972	1025.416366	-41.262713	-55.426008	983.096556	-413.921376	97.386570	929.890448	-20.211863	182.283660	907.862101	-34.921531	242.981815	847.069698	-37.307235	197.539847	939.292355	-47.364353	340.696881	780.787465	-60.072145	330.897871	766.261858	-176.011651	286.968092	677.724941	-32.159870	287.798378	589.407701	-45.589667	246.263927	514.020240	-48.734572	317.729899	585.551936	-70.582483	216.751803	418.308132	-61.828777	242.255331	436.448672	-140.251836	164.342691	394.526996	-106.626024	405.603300	374.797216	-102.974705	323.977048	345.819837	-40.700340	26.660249	875.654654	-433.149961	104.145680	836.273398	-431.124371	128.478609	863.430657	-429.058981	152.261678	761.619662	-422.624320	233.233494	676.705647	-409.448946	246.814037	677.784818	-287.846519	-46.764940	429.513749	-378.724351	-26.579469	418.337277	-300.611617	-105.659434	431.954889	-330.765424	-0.803984	291.018891	-399.476533	136.150324	604.717863	-431.497524	97.047396	528.165787	-408.442458	21.707025	481.493891	-398.935368	120.382796	513.734364	-382.428059	84.706839	264.683845	-345.274490	-217.861657	832.255652	-214.457260	-103.967741	80.413023	-418.295791	-103.979231	80.445497	-18.341181	
1503	7.5150	413.017943	1289.375577	-31.902628	460.845452	1303.366966	-319.028757	395.392779	1323.398674	-188.428630	415.824650	1181.211821	-182.409820	416.967434	1025.727235	40.803689	599.431448	915.763519	-39.469681	455.395096	1064.034056	-478.772147	607.955258	910.296611	-434.180958	-112.762793	1100.578900	-221.608373	52.327273	1116.627818	-386.491475	57.131902	1125.718673	-94.593560	80.941545	1033.026180	-357.588149	84.671285	1047.250180	-100.122306	-69.350062	1160.167750	-177.194561	-65.829604	1169.659141	-286.998674	-15.059414	1020.728805	-42.428808	-53.357659	982.443532	-415.149622	95.388349	922.884596	-20.347838	179.872336	898.861847	-34.588975	239.289363	837.503116	-37.522304	196.274252	931.121148	-46.061388	335.349953	768.524002	-60.083600	327.139360	755.090992	-175.605881	281.754425	667.332893	-31.573129	284.226702	578.837298	-44.769248	243.855229	502.957343	-48.161457	314.575897	575.329298	-69.173524	217.018405	406.066365	-61.643178	242.519577	424.439796	-140.220662	164.826091	382.442049	-106.483199	406.249553	364.336460	-102.866621	324.870448	334.646173	-40.686648	30.393227	876.490374	-433.852710	108.581347	838.572338	-431.542842	132.252013	865.680521	-427.917415	157.804942	764.520841	-422.191271	239.753117	680.885371	-409.061701	250.657118	682.048221	-286.609928	-44.248740	440.581598	-378.968413	-24.798044	429.274241	-300.735552	-103.304297	444.490959	-331.151277	-1.461856	301.194525	-399.524183	141.656460	611.750189	-430.576222	101.689596	535.683398	-407.977470	25.128831	491.041449	-399.544022	124.636952	521.146597	-382.071845	83.588888	273.385649	-345.267378	-217.855491	832.246760	-214.510291	-103.961790	80.442878	-418.322757	-104.001385	80.459300	-18.348127	
1504	7.5200	413.560961	1289.152324	-32.925554	460.112937	1304.010173	-320.010758	395.059408	1323.656131	-189.057323	415.662451	1181.458497	-183.643943	417.056628	1025.555972	39.500126	599.531461	915.514992	-39.723814	455.414562	1064.269305	-479.477016	607.907782	910.492574	-434.563135	-113.182893	1098.594241	-222.095493	52.269078	1116.180872	-386.229973	58.963361	1123.846111	-93.883383	80.393416	1031.791554	-355.811915	84.707709	1045.076375	-99.917099	-69.984995	1158.115569	-177.094415	-66.097289	1168.131434	-286.958411	-16.361042	1016.689181	-42.669709	-51.202096	981.569999	-416.275214	93.481749	916.311547	-20.640883	177.682521	890.874437	-34.346442	235.610577	827.721816	-38.743828	194.812806	922.517121	-45.001877	329.930301	757.161543	-60.370558	323.271499	744.858220	-175.323990	276.722678	656.951670	-31.651501	280.408144	568.757022	-44.141801	241.388340	491.987636	-47.987393	311.116802	565.510513	-67.908310	216.861847	394.230446	-61.291301	242.422574	412.760850	-140.039717	164.786328	370.541235	-106.195236	406.298962	353.678599	-102.735906	325.113160	323.466532	-40.631990	34.418486	877.429836	-434.699508	113.208828	840.832075	-431.393856	136.370181	868.308391	-427.245180	163.609609	767.497142	-421.524860	246.431915	685.334828	-408.589437	254.707037	686.700547	-285.726290	-41.015085	451.750726	-379.175975	-22.417522	440.354263	-300.793268	-100.463131	456.899227	-331.100436	-1.434810	311.256720	-399.445262	147.999044	619.240445	-430.253021	106.906999	543.648133	-407.835020	29.540025	500.302652	-399.641771	129.404099	528.915477	-381.610826	83.070179	281.804009	-344.903623	-217.843105	832.230298	-214.484735	-103.948085	80.417876	-418.302973	-103.980009	80.448308	-18.337678	
1505	7.5250	414.244415	1288.954698	-34.030279	459.272953	1304.590918	-321.178143	394.508761	1323.989471	-189.542762	415.319861	1181.784670	-184.868832	417.300168	1025.302618	38.335119	599.628669	915.157202	-40.060309	455.361686	1064.400019	-480.235497	607.847300	910.681357	-434.740434	-113.487509	1096.655103	-222.507232	52.114555	1115.572808	-385.924097	59.399050	1121.911929	-93.915712	80.393558	1030.924241	-355.101924	84.667121	1042.753629	-99.361352	-70.681709	1155.976842	-176.400806	-66.402753	1166.388564	-286.981577	-17.748709	1012.677951	-42.768326	-48.988640	980.522949	-417.260544	91.490224	909.482933	-20.878447	175.297222	882.389443	-34.112168	231.722523	817.878664	-39.933202	193.329852	913.666546	-43.911653	324.355991	747.496314	-60.906412	317.880045	735.378070	-175.319758	271.159266	646.816224	-32.069443	276.455654	558.579615	-43.798684	238.619651	481.261108	-47.837731	307.630084	555.657600	-66.962526	216.095536	382.575426	-61.001884	241.875050	401.271134	-139.832489	164.280496	359.069114	-105.873982	405.967567	343.166263	-102.431945	324.805630	312.230464	-40.488680	38.682407	878.102999	-435.388827	118.080739	843.064415	-430.985843	140.662201	870.987862	-426.366738	169.774116	770.680492	-420.793635	253.350435	690.280875	-408.015653	261.119513	693.153987	-284.755063	-37.259880	463.015771	-379.116956	-19.813466	451.939391	-300.037906	-96.528333	469.497644	-331.565737	-0.492204	321.710562	-399.529111	154.580856	626.980229	-430.102559	112.569627	551.988244	-407.768252	34.608034	509.561361	-399.855406	134.709121	537.120715	-381.302229	83.319745	290.497564	-344.939075	-217.839929	832.241492	-214.536223	-103.956599	80.374356	-418.308554	-103.965318	80.448140	-18.337679	
1506	7.5300	415.027022	1288.701316	-35.243611	458.449540	1305.130575	-322.447682	394.131279	1323.914909	-190.483627	415.895164	1181.827912	-186.242365	417.542046	1025.049451	37.191394	599.773227	914.729627	-40.384269	455.238761	1064.458104	-481.150957	607.749322	910.762749	-434.729973	-113.715337	1094.471089	-222.959152	51.817150	1114.761466	-385.391051	60.073400	1119.878478	-93.640214	80.370771	1029.991390	-354.347428	84.199727	1040.818201	-97.346803	-71.692241	1153.647573	-175.506771	-66.866831	1164.447949	-286.725688	-19.065299	1008.274842	-42.660594	-46.766338	979.288168	-418.083360	89.435498	902.810273	-20.322240	172.785537	873.669625	-33.904464	227.671530	807.983554	-41.068900	191.661071	904.749177	-42.808419	318.143345	738.674495	-61.354533	312.316517	726.758701	-175.808627	265.267411	636.843148	-32.857244	272.339562	548.470329	-43.453727	235.847286	470.616670	-47.600146	303.978025	545.948763	-65.986150	214.842886	371.297840	-60.724403	242.523301	391.447395	-138.956097	163.357232	347.847955	-105.556937	404.873598	331.757044	-103.244993	323.814164	301.055950	-40.424072	43.229652	878.810944	-435.923082	123.275860	845.390400	-430.275667	145.187968	873.910634	-425.246511	177.039851	774.626224	-420.657925	260.740731	696.298063	-407.608680	266.884338	699.138407	-283.910401	-32.567263	474.177464	-379.142917	-15.372258	462.532463	-300.237553	-91.324931	481.956714	-331.587321	1.083281	332.160175	-399.559608	161.458138	635.164968	-430.008391	118.665070	560.605507	-407.625275	40.515236	518.854761	-399.765294	140.421394	545.624265	-381.061734	84.059361	298.878249	-344.916453	-217.802165	832.222515	-214.475235	-103.922746	80.420530	-418.293496	-103.944314	80.396291	-18.330293	
